<svg version="1.1" preserveAspectRatio="none" xmlns="http://www.w3.org/2000/svg" width="500" height="500" viewBox="0 0 500 500"><rect width="100%" height="100%" fill="#1C1C1C" fill-opacity="1"/><svg viewBox="-20.8269 105.3588 550.1442 171.2812" width="417" height="129.82825302893315" x="41.5px" y="185.0859px" xmlns="http://www.w3.org/2000/svg" xmlns:xlink="http://www.w3.org/1999/xlink" preserveAspectRatio="none"><defs></defs><style>.companyName {fill:#EDEDED;fill-opacity:1;}.icon1 {fill:#EDEDED;fill-opacity:1;}.icon2 {fill:#F35F40;fill-opacity:1;}.icon3 {fill:#B2B2B1;fill-opacity:1;}.icon3-str {stroke:#B2B2B1;stroke-opacity:1;}.text {fill:#EDEDED;fill-opacity:1;}</style><g opacity="1" transform="rotate(0 178.849 105.3588)">
<svg width="150.7925" height="77.2812" x="178.849" y="105.3588" version="1.1" preserveAspectRatio="none" viewBox="20 59 160 82">
  <g transform="matrix(1 0 0 1 0 0)"><g><path d="M96.5 141H68.7l-16.4-29 13.9-24.6L96.5 141z" data-color="1" class="icon1"></path><path d="M48.7 141H20l46.9-82h28.7l-46.9 82z" data-color="2" class="icon2"></path><path d="M97.6 141H68.9l46.9-82h28.7l-46.9 82z" data-color="3" class="icon3"></path><path d="M180 141h-28.8l-16.9-29 14.4-24.6L180 141z" data-color="1" class="icon1"></path></g></g>
</svg>
</g><g opacity="1" transform="rotate(0 -20.8269 256.64)">
<svg width="550.1442" height="20" x="-20.8269" y="256.64" version="1.1" preserveAspectRatio="none" viewBox="1.48 -29.88 1040.68 37.84">
  <g transform="matrix(1 0 0 1 0 0)" class="text"><path id="id-6izo4zJp43" d="M40.16-28L43-28L33.56 0L30.44 0L22.24-23.88L14 0L10.92 0L1.48-28L4.52-28L12.60-3.92L20.96-28L23.72-28L31.96-3.80L40.16-28Z M67.76-10.52L67.72-9.64L50.12-9.64Q50.36-6.36 52.64-4.34Q54.92-2.32 58.40-2.32L58.40-2.32Q60.36-2.32 62-3.02Q63.64-3.72 64.84-5.08L64.84-5.08L66.44-3.24Q65.04-1.56 62.94-0.68Q60.84 0.20 58.32 0.20L58.32 0.20Q55.08 0.20 52.58-1.18Q50.08-2.56 48.68-5Q47.28-7.44 47.28-10.52L47.28-10.52Q47.28-13.60 48.62-16.04Q49.96-18.48 52.30-19.84Q54.64-21.20 57.56-21.20L57.56-21.20Q60.48-21.20 62.80-19.84Q65.12-18.48 66.44-16.06Q67.76-13.64 67.76-10.52L67.76-10.52ZM57.56-18.76Q54.52-18.76 52.46-16.82Q50.40-14.88 50.12-11.76L50.12-11.76L65.04-11.76Q64.76-14.88 62.70-16.82Q60.64-18.76 57.56-18.76L57.56-18.76Z M108.80-10.52L108.76-9.64L91.16-9.64Q91.40-6.36 93.68-4.34Q95.96-2.32 99.44-2.32L99.44-2.32Q101.40-2.32 103.04-3.02Q104.68-3.72 105.88-5.08L105.88-5.08L107.48-3.24Q106.08-1.56 103.98-0.68Q101.88 0.20 99.36 0.20L99.36 0.20Q96.12 0.20 93.62-1.18Q91.12-2.56 89.72-5Q88.32-7.44 88.32-10.52L88.32-10.52Q88.32-13.60 89.66-16.04Q91-18.48 93.34-19.84Q95.68-21.20 98.60-21.20L98.60-21.20Q101.52-21.20 103.84-19.84Q106.16-18.48 107.48-16.06Q108.80-13.64 108.80-10.52L108.80-10.52ZM98.60-18.76Q95.56-18.76 93.50-16.82Q91.44-14.88 91.16-11.76L91.16-11.76L106.08-11.76Q105.80-14.88 103.74-16.82Q101.68-18.76 98.60-18.76L98.60-18.76Z M144.04-21.20Q148-21.20 150.26-18.92Q152.52-16.64 152.52-12.20L152.52-12.20L152.52 0L149.68 0L149.68-11.92Q149.68-15.20 148.10-16.92Q146.52-18.64 143.64-18.64L143.64-18.64Q140.36-18.64 138.48-16.62Q136.60-14.60 136.60-11.04L136.60-11.04L136.60 0L133.76 0L133.76-11.92Q133.76-15.20 132.18-16.92Q130.60-18.64 127.68-18.64L127.68-18.64Q124.44-18.64 122.54-16.62Q120.64-14.60 120.64-11.04L120.64-11.04L120.64 0L117.80 0L117.80-21.04L120.52-21.04L120.52-17.20Q121.64-19.12 123.64-20.16Q125.64-21.20 128.24-21.20L128.24-21.20Q130.88-21.20 132.82-20.08Q134.76-18.96 135.72-16.76L135.72-16.76Q136.88-18.84 139.06-20.02Q141.24-21.20 144.04-21.20L144.04-21.20Z M174.28-21.20Q177.24-21.20 179.64-19.86Q182.04-18.52 183.40-16.08Q184.76-13.64 184.76-10.52L184.76-10.52Q184.76-7.40 183.40-4.96Q182.04-2.52 179.64-1.16Q177.24 0.20 174.28 0.20L174.28 0.20Q171.64 0.20 169.54-0.92Q167.44-2.04 166.16-4.16L166.16-4.16L166.16 0L163.44 0L163.44-29.68L166.28-29.68L166.28-17.04Q167.60-19.08 169.66-20.14Q171.72-21.20 174.28-21.20L174.28-21.20ZM174.08-2.32Q176.28-2.32 178.08-3.34Q179.88-4.36 180.90-6.24Q181.92-8.12 181.92-10.52L181.92-10.52Q181.92-12.92 180.90-14.80Q179.88-16.68 178.08-17.70Q176.28-18.72 174.08-18.72L174.08-18.72Q171.84-18.72 170.06-17.70Q168.28-16.68 167.26-14.80Q166.24-12.92 166.24-10.52L166.24-10.52Q166.24-8.12 167.26-6.24Q168.28-4.36 170.06-3.34Q171.84-2.32 174.08-2.32L174.08-2.32Z M196.48-16.92Q197.48-19.04 199.46-20.12Q201.44-21.20 204.36-21.20L204.36-21.20L204.36-18.44L203.68-18.48Q200.36-18.48 198.48-16.44Q196.60-14.40 196.60-10.72L196.60-10.72L196.60 0L193.76 0L193.76-21.04L196.48-21.04L196.48-16.92Z M220.00-21.20Q224.12-21.20 226.32-19.14Q228.52-17.08 228.52-13.04L228.52-13.04L228.52 0L225.80 0L225.80-3.28Q224.84-1.64 222.98-0.72Q221.12 0.20 218.56 0.20L218.56 0.20Q215.04 0.20 212.96-1.48Q210.88-3.16 210.88-5.92L210.88-5.92Q210.88-8.60 212.82-10.24Q214.76-11.88 219.00-11.88L219.00-11.88L225.68-11.88L225.68-13.16Q225.68-15.88 224.16-17.30Q222.64-18.72 219.72-18.72L219.72-18.72Q217.72-18.72 215.88-18.06Q214.04-17.40 212.72-16.24L212.72-16.24L211.44-18.36Q213.04-19.72 215.28-20.46Q217.52-21.20 220.00-21.20L220.00-21.20ZM219.00-2.04Q221.40-2.04 223.12-3.14Q224.84-4.24 225.68-6.32L225.68-6.32L225.68-9.76L219.08-9.76Q213.68-9.76 213.68-6L213.68-6Q213.68-4.16 215.08-3.10Q216.48-2.04 219.00-2.04L219.00-2.04Z M248.24 0.20Q245.12 0.20 242.66-1.16Q240.20-2.52 238.80-4.98Q237.40-7.44 237.40-10.52L237.40-10.52Q237.40-13.60 238.80-16.04Q240.20-18.48 242.66-19.84Q245.12-21.20 248.24-21.20L248.24-21.20Q250.96-21.20 253.10-20.14Q255.24-19.08 256.48-17.04L256.48-17.04L254.36-15.60Q253.32-17.16 251.72-17.94Q250.12-18.72 248.24-18.72L248.24-18.72Q245.96-18.72 244.14-17.70Q242.32-16.68 241.30-14.80Q240.28-12.92 240.28-10.52L240.28-10.52Q240.28-8.08 241.30-6.22Q242.32-4.36 244.14-3.34Q245.96-2.32 248.24-2.32L248.24-2.32Q250.12-2.32 251.72-3.08Q253.32-3.84 254.36-5.40L254.36-5.40L256.48-3.96Q255.24-1.92 253.08-0.86Q250.92 0.20 248.24 0.20L248.24 0.20Z M283.24-10.52L283.20-9.64L265.60-9.64Q265.84-6.36 268.12-4.34Q270.40-2.32 273.88-2.32L273.88-2.32Q275.84-2.32 277.48-3.02Q279.12-3.72 280.32-5.08L280.32-5.08L281.92-3.24Q280.52-1.56 278.42-0.68Q276.32 0.20 273.80 0.20L273.80 0.20Q270.56 0.20 268.06-1.18Q265.56-2.56 264.16-5Q262.76-7.44 262.76-10.52L262.76-10.52Q262.76-13.60 264.10-16.04Q265.44-18.48 267.78-19.84Q270.12-21.20 273.04-21.20L273.04-21.20Q275.96-21.20 278.28-19.84Q280.60-18.48 281.92-16.06Q283.24-13.64 283.24-10.52L283.24-10.52ZM273.04-18.76Q270.00-18.76 267.94-16.82Q265.88-14.88 265.60-11.76L265.60-11.76L280.52-11.76Q280.24-14.88 278.18-16.82Q276.12-18.76 273.04-18.76L273.04-18.76Z M320.80-21.04L323.60-21.04L313.08 2.52Q311.80 5.48 310.12 6.72Q308.44 7.96 306.08 7.96L306.08 7.96Q304.56 7.96 303.24 7.48Q301.92 7 300.96 6.04L300.96 6.04L302.28 3.92Q303.88 5.52 306.12 5.52L306.12 5.52Q307.56 5.52 308.58 4.72Q309.60 3.92 310.48 2L310.48 2L311.40-0.04L302.00-21.04L304.96-21.04L312.88-3.16L320.80-21.04Z M338.80 0.20Q335.76 0.20 333.32-1.18Q330.88-2.56 329.48-5Q328.08-7.44 328.08-10.52L328.08-10.52Q328.08-13.60 329.48-16.04Q330.88-18.48 333.32-19.84Q335.76-21.20 338.80-21.20L338.80-21.20Q341.84-21.20 344.28-19.84Q346.72-18.48 348.10-16.04Q349.48-13.60 349.48-10.52L349.48-10.52Q349.48-7.44 348.10-5Q346.72-2.56 344.28-1.18Q341.84 0.20 338.80 0.20L338.80 0.20ZM338.80-2.32Q341.04-2.32 342.82-3.34Q344.60-4.36 345.60-6.24Q346.60-8.12 346.60-10.52L346.60-10.52Q346.60-12.92 345.60-14.80Q344.60-16.68 342.82-17.70Q341.04-18.72 338.80-18.72L338.80-18.72Q336.56-18.72 334.78-17.70Q333.00-16.68 331.98-14.80Q330.96-12.92 330.96-10.52L330.96-10.52Q330.96-8.12 331.98-6.24Q333.00-4.36 334.78-3.34Q336.56-2.32 338.80-2.32L338.80-2.32Z M374.60-21.04L377.44-21.04L377.44 0L374.72 0L374.72-3.84Q373.60-1.92 371.64-0.86Q369.68 0.20 367.16 0.20L367.16 0.20Q363.04 0.20 360.66-2.10Q358.28-4.40 358.28-8.84L358.28-8.84L358.28-21.04L361.12-21.04L361.12-9.12Q361.12-5.80 362.76-4.08Q364.40-2.36 367.44-2.36L367.44-2.36Q370.76-2.36 372.68-4.38Q374.60-6.40 374.60-10L374.60-10L374.60-21.04Z M391.32-16.92Q392.32-19.04 394.30-20.12Q396.28-21.20 399.20-21.20L399.20-21.20L399.20-18.44L398.52-18.48Q395.20-18.48 393.32-16.44Q391.44-14.40 391.44-10.72L391.44-10.72L391.44 0L388.60 0L388.60-21.04L391.32-21.04L391.32-16.92Z M437.88-29.68L440.72-29.68L440.72 0L438.00 0L438.00-4.16Q436.72-2.04 434.62-0.92Q432.52 0.20 429.88 0.20L429.88 0.20Q426.92 0.20 424.52-1.16Q422.12-2.52 420.76-4.96Q419.40-7.40 419.40-10.52L419.40-10.52Q419.40-13.64 420.76-16.08Q422.12-18.52 424.52-19.86Q426.92-21.20 429.88-21.20L429.88-21.20Q432.44-21.20 434.50-20.14Q436.56-19.08 437.88-17.04L437.88-17.04L437.88-29.68ZM430.12-2.32Q432.32-2.32 434.10-3.34Q435.88-4.36 436.90-6.24Q437.92-8.12 437.92-10.52L437.92-10.52Q437.92-12.92 436.90-14.80Q435.88-16.68 434.10-17.70Q432.32-18.72 430.12-18.72L430.12-18.72Q427.88-18.72 426.10-17.70Q424.32-16.68 423.30-14.80Q422.28-12.92 422.28-10.52L422.28-10.52Q422.28-8.12 423.30-6.24Q424.32-4.36 426.10-3.34Q427.88-2.32 430.12-2.32L430.12-2.32Z M454.56-16.92Q455.56-19.04 457.54-20.12Q459.52-21.20 462.44-21.20L462.44-21.20L462.44-18.44L461.76-18.48Q458.44-18.48 456.56-16.44Q454.68-14.40 454.68-10.72L454.68-10.72L454.68 0L451.84 0L451.84-21.04L454.56-21.04L454.56-16.92Z M488.92-10.52L488.88-9.64L471.28-9.64Q471.52-6.36 473.80-4.34Q476.08-2.32 479.56-2.32L479.56-2.32Q481.52-2.32 483.16-3.02Q484.80-3.72 486.00-5.08L486.00-5.08L487.60-3.24Q486.20-1.56 484.10-0.68Q482.00 0.20 479.48 0.20L479.48 0.20Q476.24 0.20 473.74-1.18Q471.24-2.56 469.84-5Q468.44-7.44 468.44-10.52L468.44-10.52Q468.44-13.60 469.78-16.04Q471.12-18.48 473.46-19.84Q475.80-21.20 478.72-21.20L478.72-21.20Q481.64-21.20 483.96-19.84Q486.28-18.48 487.60-16.06Q488.92-13.64 488.92-10.52L488.92-10.52ZM478.72-18.76Q475.68-18.76 473.62-16.82Q471.56-14.88 471.28-11.76L471.28-11.76L486.20-11.76Q485.92-14.88 483.86-16.82Q481.80-18.76 478.72-18.76L478.72-18.76Z M504.68-21.20Q508.80-21.20 511.00-19.14Q513.20-17.08 513.20-13.04L513.20-13.04L513.20 0L510.48 0L510.48-3.28Q509.52-1.64 507.66-0.72Q505.80 0.20 503.24 0.20L503.24 0.20Q499.72 0.20 497.64-1.48Q495.56-3.16 495.56-5.92L495.56-5.92Q495.56-8.60 497.50-10.24Q499.44-11.88 503.68-11.88L503.68-11.88L510.36-11.88L510.36-13.16Q510.36-15.88 508.84-17.30Q507.32-18.72 504.40-18.72L504.40-18.72Q502.40-18.72 500.56-18.06Q498.72-17.40 497.40-16.24L497.40-16.24L496.12-18.36Q497.72-19.72 499.96-20.46Q502.20-21.20 504.68-21.20L504.68-21.20ZM503.68-2.04Q506.08-2.04 507.80-3.14Q509.52-4.24 510.36-6.32L510.36-6.32L510.36-9.76L503.76-9.76Q498.36-9.76 498.36-6L498.36-6Q498.36-4.16 499.76-3.10Q501.16-2.04 503.68-2.04L503.68-2.04Z M550.36-21.20Q554.32-21.20 556.58-18.92Q558.84-16.64 558.84-12.20L558.84-12.20L558.84 0L556 0L556-11.92Q556-15.20 554.42-16.92Q552.84-18.64 549.96-18.64L549.96-18.64Q546.68-18.64 544.80-16.62Q542.92-14.60 542.92-11.04L542.92-11.04L542.92 0L540.08 0L540.08-11.92Q540.08-15.20 538.50-16.92Q536.92-18.64 534-18.64L534-18.64Q530.76-18.64 528.86-16.62Q526.96-14.60 526.96-11.04L526.96-11.04L526.96 0L524.12 0L524.12-21.04L526.84-21.04L526.84-17.20Q527.96-19.12 529.96-20.16Q531.96-21.20 534.56-21.20L534.56-21.20Q537.20-21.20 539.14-20.08Q541.08-18.96 542.04-16.76L542.04-16.76Q543.20-18.84 545.38-20.02Q547.56-21.20 550.36-21.20L550.36-21.20Z M575.40 0.20Q572.84 0.20 570.50-0.54Q568.16-1.28 566.84-2.40L566.84-2.40L568.12-4.64Q569.44-3.60 571.44-2.94Q573.44-2.28 575.60-2.28L575.60-2.28Q578.48-2.28 579.86-3.18Q581.24-4.08 581.24-5.72L581.24-5.72Q581.24-6.88 580.48-7.54Q579.72-8.20 578.56-8.54Q577.40-8.88 575.48-9.20L575.48-9.20Q572.92-9.68 571.36-10.18Q569.80-10.68 568.70-11.88Q567.60-13.08 567.60-15.20L567.60-15.20Q567.60-17.84 569.80-19.52Q572-21.20 575.92-21.20L575.92-21.20Q577.96-21.20 580-20.66Q582.04-20.12 583.36-19.24L583.36-19.24L582.12-16.96Q579.52-18.76 575.92-18.76L575.92-18.76Q573.20-18.76 571.82-17.80Q570.44-16.84 570.44-15.28L570.44-15.28Q570.44-14.08 571.22-13.36Q572-12.64 573.16-12.30Q574.32-11.96 576.36-11.60L576.36-11.60Q578.88-11.12 580.40-10.64Q581.92-10.16 583-9Q584.08-7.84 584.08-5.80L584.08-5.80Q584.08-3.04 581.78-1.42Q579.48 0.20 575.40 0.20L575.40 0.20Z M614.80 0.20Q611.76 0.20 609.32-1.18Q606.88-2.56 605.48-5Q604.08-7.44 604.08-10.52L604.08-10.52Q604.08-13.60 605.48-16.04Q606.88-18.48 609.32-19.84Q611.76-21.20 614.80-21.20L614.80-21.20Q617.84-21.20 620.28-19.84Q622.72-18.48 624.10-16.04Q625.48-13.60 625.48-10.52L625.48-10.52Q625.48-7.44 624.10-5Q622.72-2.56 620.28-1.18Q617.84 0.20 614.80 0.20L614.80 0.20ZM614.80-2.32Q617.04-2.32 618.82-3.34Q620.60-4.36 621.60-6.24Q622.60-8.12 622.60-10.52L622.60-10.52Q622.60-12.92 621.60-14.80Q620.60-16.68 618.82-17.70Q617.04-18.72 614.80-18.72L614.80-18.72Q612.56-18.72 610.78-17.70Q609-16.68 607.98-14.80Q606.96-12.92 606.96-10.52L606.96-10.52Q606.96-8.12 607.98-6.24Q609-4.36 610.78-3.34Q612.56-2.32 614.80-2.32L614.80-2.32Z M641.44-27.48Q639.60-27.48 638.66-26.48Q637.72-25.48 637.72-23.52L637.72-23.52L637.72-21.04L644.20-21.04L644.20-18.64L637.80-18.64L637.80 0L634.96 0L634.96-18.64L631.20-18.64L631.20-21.04L634.96-21.04L634.96-23.64Q634.96-26.52 636.62-28.20Q638.28-29.88 641.32-29.88L641.32-29.88Q642.52-29.88 643.64-29.54Q644.76-29.20 645.52-28.56L645.52-28.56L644.56-26.44Q643.32-27.48 641.44-27.48L641.44-27.48Z M671.88-27.48Q670.04-27.48 669.10-26.48Q668.16-25.48 668.16-23.52L668.16-23.52L668.16-21.04L674.64-21.04L674.64-18.64L668.24-18.64L668.24 0L665.40 0L665.40-18.64L661.64-18.64L661.64-21.04L665.40-21.04L665.40-23.64Q665.40-26.52 667.06-28.20Q668.72-29.88 671.76-29.88L671.76-29.88Q672.96-29.88 674.08-29.54Q675.20-29.20 675.96-28.56L675.96-28.56L675.00-26.44Q673.76-27.48 671.88-27.48L671.88-27.48Z M684.88 0L684.88-21.04L687.72-21.04L687.72 0L684.88 0ZM686.32-25.64Q685.44-25.64 684.84-26.24Q684.24-26.84 684.24-27.68L684.24-27.68Q684.24-28.48 684.84-29.08Q685.44-29.68 686.32-29.68L686.32-29.68Q687.20-29.68 687.80-29.10Q688.40-28.52 688.40-27.72L688.40-27.72Q688.40-26.84 687.80-26.24Q687.20-25.64 686.32-25.64L686.32-25.64Z M709.56-21.20Q713.52-21.20 715.86-18.90Q718.20-16.60 718.20-12.20L718.20-12.20L718.20 0L715.36 0L715.36-11.92Q715.36-15.20 713.72-16.92Q712.08-18.64 709.04-18.64L709.04-18.64Q705.64-18.64 703.66-16.62Q701.68-14.60 701.68-11.04L701.68-11.04L701.68 0L698.84 0L698.84-21.04L701.56-21.04L701.56-17.16Q702.72-19.08 704.78-20.14Q706.84-21.20 709.56-21.20L709.56-21.20Z M736.48-21.20Q740.60-21.20 742.80-19.14Q745.00-17.08 745.00-13.04L745.00-13.04L745.00 0L742.28 0L742.28-3.28Q741.32-1.64 739.46-0.72Q737.60 0.20 735.04 0.20L735.04 0.20Q731.52 0.20 729.44-1.48Q727.36-3.16 727.36-5.92L727.36-5.92Q727.36-8.60 729.30-10.24Q731.24-11.88 735.48-11.88L735.48-11.88L742.16-11.88L742.16-13.16Q742.16-15.88 740.64-17.30Q739.12-18.72 736.20-18.72L736.20-18.72Q734.20-18.72 732.36-18.06Q730.52-17.40 729.20-16.24L729.20-16.24L727.92-18.36Q729.52-19.72 731.76-20.46Q734.00-21.20 736.48-21.20L736.48-21.20ZM735.48-2.04Q737.88-2.04 739.60-3.14Q741.32-4.24 742.16-6.32L742.16-6.32L742.16-9.76L735.56-9.76Q730.16-9.76 730.16-6L730.16-6Q730.16-4.16 731.56-3.10Q732.96-2.04 735.48-2.04L735.48-2.04Z M766.64-21.20Q770.60-21.20 772.94-18.90Q775.28-16.60 775.28-12.20L775.28-12.20L775.28 0L772.44 0L772.44-11.92Q772.44-15.20 770.80-16.92Q769.16-18.64 766.12-18.64L766.12-18.64Q762.72-18.64 760.74-16.62Q758.76-14.60 758.76-11.04L758.76-11.04L758.76 0L755.92 0L755.92-21.04L758.64-21.04L758.64-17.16Q759.80-19.08 761.86-20.14Q763.92-21.20 766.64-21.20L766.64-21.20Z M795.00 0.20Q791.88 0.20 789.42-1.16Q786.96-2.52 785.56-4.98Q784.16-7.44 784.16-10.52L784.16-10.52Q784.16-13.60 785.56-16.04Q786.96-18.48 789.42-19.84Q791.88-21.20 795.00-21.20L795.00-21.20Q797.72-21.20 799.86-20.14Q802.00-19.08 803.24-17.04L803.24-17.04L801.12-15.60Q800.08-17.16 798.48-17.94Q796.88-18.72 795.00-18.72L795.00-18.72Q792.72-18.72 790.90-17.70Q789.08-16.68 788.06-14.80Q787.04-12.92 787.04-10.52L787.04-10.52Q787.04-8.08 788.06-6.22Q789.08-4.36 790.90-3.34Q792.72-2.32 795.00-2.32L795.00-2.32Q796.88-2.32 798.48-3.08Q800.08-3.84 801.12-5.40L801.12-5.40L803.24-3.96Q802.00-1.92 799.84-0.86Q797.68 0.20 795.00 0.20L795.00 0.20Z M812.00 0L812.00-21.04L814.84-21.04L814.84 0L812.00 0ZM813.44-25.64Q812.56-25.64 811.96-26.24Q811.36-26.84 811.36-27.68L811.36-27.68Q811.36-28.48 811.96-29.08Q812.56-29.68 813.44-29.68L813.44-29.68Q814.32-29.68 814.92-29.10Q815.52-28.52 815.52-27.72L815.52-27.72Q815.52-26.84 814.92-26.24Q814.32-25.64 813.44-25.64L813.44-25.64Z M833.32-21.20Q837.44-21.20 839.64-19.14Q841.84-17.08 841.84-13.04L841.84-13.04L841.84 0L839.12 0L839.12-3.28Q838.16-1.64 836.30-0.72Q834.44 0.20 831.88 0.20L831.88 0.20Q828.36 0.20 826.28-1.48Q824.20-3.16 824.20-5.92L824.20-5.92Q824.20-8.60 826.14-10.24Q828.08-11.88 832.32-11.88L832.32-11.88L839.00-11.88L839.00-13.16Q839.00-15.88 837.48-17.30Q835.96-18.72 833.04-18.72L833.04-18.72Q831.04-18.72 829.20-18.06Q827.36-17.40 826.04-16.24L826.04-16.24L824.76-18.36Q826.36-19.72 828.60-20.46Q830.84-21.20 833.32-21.20L833.32-21.20ZM832.32-2.04Q834.72-2.04 836.44-3.14Q838.16-4.24 839.00-6.32L839.00-6.32L839.00-9.76L832.40-9.76Q827.00-9.76 827.00-6L827.00-6Q827.00-4.16 828.40-3.10Q829.80-2.04 832.32-2.04L832.32-2.04Z M852.76 0L852.76-29.68L855.60-29.68L855.60 0L852.76 0Z M897.16-21.04L899.88-21.04L899.88-2.56Q899.88 2.80 897.26 5.38Q894.64 7.96 889.36 7.96L889.36 7.96Q886.44 7.96 883.82 7.10Q881.20 6.24 879.56 4.72L879.56 4.72L881.00 2.56Q882.52 3.92 884.70 4.68Q886.88 5.44 889.28 5.44L889.28 5.44Q893.28 5.44 895.16 3.58Q897.04 1.72 897.04-2.20L897.04-2.20L897.04-4.88Q895.72-2.88 893.58-1.84Q891.44-0.80 888.84-0.80L888.84-0.80Q885.88-0.80 883.46-2.10Q881.04-3.40 879.66-5.74Q878.28-8.08 878.28-11.04L878.28-11.04Q878.28-14 879.66-16.32Q881.04-18.64 883.44-19.92Q885.84-21.20 888.84-21.20L888.84-21.20Q891.52-21.20 893.68-20.12Q895.84-19.04 897.16-17L897.16-17L897.16-21.04ZM889.12-3.32Q891.40-3.32 893.24-4.30Q895.08-5.28 896.10-7.04Q897.12-8.80 897.12-11.04L897.12-11.04Q897.12-13.28 896.10-15.02Q895.08-16.76 893.26-17.74Q891.44-18.72 889.12-18.72L889.12-18.72Q886.84-18.72 885.02-17.76Q883.20-16.80 882.18-15.04Q881.16-13.28 881.16-11.04L881.16-11.04Q881.16-8.80 882.18-7.04Q883.20-5.28 885.02-4.30Q886.84-3.32 889.12-3.32L889.12-3.32Z M913.76-16.92Q914.76-19.04 916.74-20.12Q918.72-21.20 921.64-21.20L921.64-21.20L921.64-18.44L920.96-18.48Q917.64-18.48 915.76-16.44Q913.88-14.40 913.88-10.72L913.88-10.72L913.88 0L911.04 0L911.04-21.04L913.76-21.04L913.76-16.92Z M938.36 0.20Q935.32 0.20 932.88-1.18Q930.44-2.56 929.04-5Q927.64-7.44 927.64-10.52L927.64-10.52Q927.64-13.60 929.04-16.04Q930.44-18.48 932.88-19.84Q935.32-21.20 938.36-21.20L938.36-21.20Q941.40-21.20 943.84-19.84Q946.28-18.48 947.66-16.04Q949.04-13.60 949.04-10.52L949.04-10.52Q949.04-7.44 947.66-5Q946.28-2.56 943.84-1.18Q941.40 0.20 938.36 0.20L938.36 0.20ZM938.36-2.32Q940.60-2.32 942.38-3.34Q944.16-4.36 945.16-6.24Q946.16-8.12 946.16-10.52L946.16-10.52Q946.16-12.92 945.16-14.80Q944.16-16.68 942.38-17.70Q940.60-18.72 938.36-18.72L938.36-18.72Q936.12-18.72 934.34-17.70Q932.56-16.68 931.54-14.80Q930.52-12.92 930.52-10.52L930.52-10.52Q930.52-8.12 931.54-6.24Q932.56-4.36 934.34-3.34Q936.12-2.32 938.36-2.32L938.36-2.32Z M985.72-21.04L988.32-21.04L980.36 0L977.68 0L971.04-17.24L964.40 0L961.72 0L953.80-21.04L956.52-21.04L963.12-3.16L969.88-21.04L972.32-21.04L979.04-3.16L985.72-21.04Z M1006.48-3.32L1007.48-1.28Q1006.68-0.56 1005.50-0.18Q1004.32 0.20 1003.04 0.20L1003.04 0.20Q1000.08 0.20 998.48-1.40Q996.88-3 996.88-5.92L996.88-5.92L996.88-18.64L993.12-18.64L993.12-21.04L996.88-21.04L996.88-25.64L999.72-25.64L999.72-21.04L1006.12-21.04L1006.12-18.64L999.72-18.64L999.72-6.08Q999.72-4.20 1000.66-3.22Q1001.60-2.24 1003.36-2.24L1003.36-2.24Q1004.24-2.24 1005.06-2.52Q1005.88-2.80 1006.48-3.32L1006.48-3.32Z M1026.56-21.20Q1030.52-21.20 1032.86-18.90Q1035.20-16.60 1035.20-12.20L1035.20-12.20L1035.20 0L1032.36 0L1032.36-11.92Q1032.36-15.20 1030.72-16.92Q1029.08-18.64 1026.04-18.64L1026.04-18.64Q1022.64-18.64 1020.66-16.62Q1018.68-14.60 1018.68-11.04L1018.68-11.04L1018.68 0L1015.84 0L1015.84-29.68L1018.68-29.68L1018.68-17.36Q1019.84-19.20 1021.88-20.20Q1023.92-21.20 1026.56-21.20L1026.56-21.20Z"/></g>
</svg>
</g><g opacity="1" transform="rotate(0 65.7546 208.64)">
<svg width="376.9812" height="32" x="65.7546" y="208.64" version="1.1" preserveAspectRatio="none" viewBox="1.52 -34.68 412.32 35">
  <g transform="matrix(1 0 0 1 0 0)" class="companyName"><path id="id-D6z1nYkh21" d="M15.48 0L1.52 0L1.52-34.36L8.40-34.36L8.40-5.84L15.48-5.84L15.48 0Z M34.40 0L20.20 0L20.20-34.36L33.96-34.36L33.96-27.72L27.20-27.72L27.20-21.04L33.68-21.04L33.68-14.56L27.20-14.56L27.20-6.68L34.40-6.68L34.40 0Z M49.32 0L42.44 0L42.44-27.76L38.36-27.76L38.36-34.36L53.40-34.36L53.40-27.76L49.32-27.76L49.32 0Z M66.28 0.32Q61.60 0.32 59.52-2Q57.44-4.32 57.44-9.48L57.44-9.48L57.44-12.84L64.20-12.84L64.20-8.56Q64.20-6 65.84-6L65.84-6Q66.76-6 67.12-6.54Q67.48-7.08 67.48-8.36L67.48-8.36Q67.48-10.04 67.08-11.14Q66.68-12.24 66.06-12.98Q65.44-13.72 63.84-15.28L63.84-15.28L60.88-18.24Q57.44-21.60 57.44-25.68L57.44-25.68Q57.44-30.08 59.46-32.38Q61.48-34.68 65.36-34.68L65.36-34.68Q70-34.68 72.04-32.22Q74.08-29.76 74.08-24.52L74.08-24.52L67.08-24.52L67.04-26.88Q67.04-27.56 66.66-27.96Q66.28-28.36 65.60-28.36L65.60-28.36Q64.80-28.36 64.40-27.92Q64.00-27.48 64.00-26.72L64.00-26.72Q64.00-25.04 65.92-23.24L65.92-23.24L69.92-19.40Q71.32-18.04 72.24-16.82Q73.16-15.60 73.72-13.94Q74.28-12.28 74.28-10L74.28-10Q74.28-4.92 72.42-2.30Q70.56 0.32 66.28 0.32L66.28 0.32Z M93.56 0L79.36 0L79.36-34.36L93.12-34.36L93.12-27.72L86.36-27.72L86.36-21.04L92.84-21.04L92.84-14.56L86.36-14.56L86.36-6.68L93.56-6.68L93.56 0Z M104.84 0L98.64 0L98.64-34.36L109.12-34.36L112.00-13.40L114.88-34.36L125.44-34.36L125.44 0L119.16 0L119.16-24.76L115.20 0L109.04 0L104.84-24.76L104.84 0Z M137.04 0L130.36 0L133.68-34.36L145.32-34.36L148.60 0L142.08 0L141.60-5.56L137.44-5.56L137.04 0ZM139.24-28.52L137.96-11.04L141.08-11.04L139.56-28.52L139.24-28.52Z M171.84 0L165.64 0L165.64-34.36L176.12-34.36L179-13.40L181.88-34.36L192.44-34.36L192.44 0L186.16 0L186.16-24.76L182.20 0L176.04 0L171.84-24.76L171.84 0Z M204.60 0L197.96 0L197.96-34.36L204.60-34.36L204.60 0Z M218.16 0.32Q214.40 0.32 212.14-2.04Q209.88-4.40 209.88-8.52L209.88-8.52L209.88-24.36Q209.88-29.48 211.92-32.08Q213.96-34.68 218.32-34.68L218.32-34.68Q222.12-34.68 224.44-32.60Q226.76-30.52 226.76-26.60L226.76-26.60L226.76-20.68L219.92-20.68L219.92-25.76Q219.92-27.24 219.56-27.80Q219.20-28.36 218.32-28.36L218.32-28.36Q217.40-28.36 217.06-27.72Q216.72-27.08 216.72-25.84L216.72-25.84L216.72-8.60Q216.72-7.24 217.12-6.62Q217.52-6 218.32-6L218.32-6Q219.92-6 219.92-8.60L219.92-8.60L219.92-14.80L226.84-14.80L226.84-8.32Q226.84 0.32 218.16 0.32L218.16 0.32Z M231.92 0L231.92-34.36L242.48-34.36Q245.00-34.36 246.38-33.22Q247.76-32.08 248.24-30.02Q248.72-27.96 248.72-24.76L248.72-24.76Q248.72-21.84 247.96-20.20Q247.20-18.56 245.32-17.92L245.32-17.92Q246.88-17.60 247.58-16.36Q248.28-15.12 248.28-13L248.28-13L248.20 0L241.48 0L241.48-13.44Q241.48-14.88 240.92-15.28Q240.36-15.68 238.88-15.68L238.88-15.68L238.88 0L231.92 0ZM238.92-21.64L240.56-21.64Q242.00-21.64 242.00-24.76L242.00-24.76Q242.00-26.12 241.88-26.80Q241.76-27.48 241.44-27.74Q241.12-28 240.52-28L240.52-28L238.92-28L238.92-21.64Z M262.00 0.32Q257.84 0.32 255.68-2.22Q253.52-4.76 253.52-9.36L253.52-9.36L253.52-25.72Q253.52-30.16 255.68-32.42Q257.84-34.68 262.00-34.68L262.00-34.68Q266.16-34.68 268.32-32.42Q270.48-30.16 270.48-25.72L270.48-25.72L270.48-9.36Q270.48-4.72 268.32-2.20Q266.16 0.32 262.00 0.32L262.00 0.32ZM262.00-6Q262.92-6 263.24-6.80Q263.56-7.60 263.56-9.04L263.56-9.04L263.56-25.84Q263.56-26.96 263.26-27.66Q262.96-28.36 262.04-28.36L262.04-28.36Q260.32-28.36 260.32-25.76L260.32-25.76L260.32-9Q260.32-7.52 260.68-6.76Q261.04-6 262.00-6L262.00-6Z M282.96 0L276.04 0L276.04-34.36L289.80-34.36L289.80-27.68L282.96-27.68L282.96-22.20L289.44-22.20L289.44-15.60L282.96-15.60L282.96 0Z M301.12 0L294.48 0L294.48-34.36L301.12-34.36L301.12 0Z M313.40 0L306.68 0L306.68-34.36L313.76-34.36L316.92-17.92L316.92-34.36L323.56-34.36L323.56 0L316.84 0L313.40-17.20L313.40 0Z M335.16 0L328.48 0L331.80-34.36L343.44-34.36L346.72 0L340.20 0L339.72-5.56L335.56-5.56L335.16 0ZM337.36-28.52L336.08-11.04L339.20-11.04L337.68-28.52L337.36-28.52Z M358.32 0L351.60 0L351.60-34.36L358.68-34.36L361.84-17.92L361.84-34.36L368.48-34.36L368.48 0L361.76 0L358.32-17.20L358.32 0Z M382.32 0.32Q378.56 0.32 376.30-2.04Q374.04-4.40 374.04-8.52L374.04-8.52L374.04-24.36Q374.04-29.48 376.08-32.08Q378.12-34.68 382.48-34.68L382.48-34.68Q386.28-34.68 388.60-32.60Q390.92-30.52 390.92-26.60L390.92-26.60L390.92-20.68L384.08-20.68L384.08-25.76Q384.08-27.24 383.72-27.80Q383.36-28.36 382.48-28.36L382.48-28.36Q381.56-28.36 381.22-27.72Q380.88-27.08 380.88-25.84L380.88-25.84L380.88-8.60Q380.88-7.24 381.28-6.62Q381.68-6 382.48-6L382.48-6Q384.08-6 384.08-8.60L384.08-8.60L384.08-14.80L391.00-14.80L391.00-8.32Q391.00 0.32 382.32 0.32L382.32 0.32Z M410.28 0L396.08 0L396.08-34.36L409.84-34.36L409.84-27.72L403.08-27.72L403.08-21.04L409.56-21.04L409.56-14.56L403.08-14.56L403.08-6.68L410.28-6.68L410.28 0Z"/></g>
</svg>
</g></svg></svg>